<svg xmlns="http://www.w3.org/2000/svg" xmlns:xlink="http://www.w3.org/1999/xlink" viewBox="0 0 17.82 24"><defs><style>.cls-1,.cls-2,.cls-5,.cls-6,.cls-8{fill:none;}.cls-2{clip-rule:evenodd;}.cls-3{clip-path:url(#clip-path);}.cls-4{clip-path:url(#clip-path-2);}.cls-5,.cls-6,.cls-8{stroke:#f4583f;}.cls-5,.cls-6{stroke-miterlimit:10;}.cls-5,.cls-8{stroke-width:2px;}.cls-6,.cls-8{stroke-linecap:round;}.cls-7{clip-path:url(#clip-path-3);}.cls-8{stroke-linejoin:round;}</style><clipPath id="clip-path" transform="translate(0 1)"><rect class="cls-1" x="2.44" y="3.88" width="12.94" height="18.12" rx="1.29"/></clipPath><clipPath id="clip-path-2" transform="translate(0 1)"><rect class="cls-1" x="-1976.26" y="-741.3" width="2070.59" height="1608.59"/></clipPath><clipPath id="clip-path-3" transform="translate(0 1)"><path class="cls-2" d="M7.62,0h2.59a2.58,2.58,0,0,1,2.58,2.59V5.18H5V2.59A2.59,2.59,0,0,1,7.62,0Z"/></clipPath></defs><g id="Слой_2" data-name="Слой 2"><g id="Layer_1" data-name="Layer 1"><g class="cls-3"><g class="cls-4"><rect class="cls-5" x="2.44" y="4.88" width="12.94" height="18.12" rx="1.29"/></g></g><line class="cls-6" x1="7.04" y1="8.76" x2="7.04" y2="19.12"/><line class="cls-6" x1="10.85" y1="8.76" x2="10.85" y2="19.12"/><line class="cls-6" x1="0.5" y1="5.53" x2="17.32" y2="5.53"/><g class="cls-7"><g class="cls-4"><path class="cls-8" d="M7.62,0h2.59a2.58,2.58,0,0,1,2.58,2.59V5.18H5V2.59A2.59,2.59,0,0,1,7.62,0Z" transform="translate(0 1)"/></g></g></g></g></svg>